<?xml version="1.0" encoding="UTF-8"?>
<svg width="1200pt" height="1200pt" version="1.1" viewBox="0 0 1200 1200" xmlns="http://www.w3.org/2000/svg">
 <path d="m75 1125h112.5c0-68.438 16.688-133.12 46.312-189.75l-97.5-56.25c-39.188 73.312-61.312 157.12-61.312 246z"/>
 <path d="m155.06 846.38 97.5 56.25c15.938-25.125 34.688-48.375 55.688-69.375s44.25-39.75 69.375-55.688l-56.25-97.5c-67.125 42.188-124.12 99.188-166.31 166.31z"/>
 <path d="m581.25 600.38c-81.938 2.8125-159.19 24.562-227.25 60.938l56.25 97.5c51.375-26.812 109.5-43.125 171-45.938z"/>
 <path d="m878.62 680.06-56.25 97.5c25.125 15.938 48.375 34.688 69.375 55.688s39.75 44.25 55.688 69.375l97.5-56.25c-42.188-67.125-99.188-124.12-166.31-166.31z"/>
 <path d="m966.19 935.25c29.625 56.625 46.312 121.31 46.312 189.75h112.5c0-88.875-22.125-172.69-61.312-246z"/>
 <path d="m618.75 600.38v112.5c9.375 0.375 18.562 1.3125 27.562 2.25l16.125-43.125c8.4375-22.5 30.375-37.688 54.375-37.688 5.0625 0 10.312 0.75 15.188 2.0625 29.062 7.875 47.25 36.188 42 65.812l-7.6875 45.375c7.875 3.5625 15.562 7.125 23.25 11.062l56.25-97.5c-68.25-36.375-145.31-58.125-227.25-60.938z"/>
 <path d="m722.44 672.56c-10.312-2.8125-21 2.625-24.75 12.75l-94.688 252.56c32.25 0.5625 62.625 9.1875 89.062 24.188l45.375-265.88c1.875-10.5-4.6875-20.625-15-23.438z"/>
 <path d="m600 975c-82.875 0-150 67.125-150 150h300c0-82.875-67.125-150-150-150z"/>
 <path d="m243.75 468.75c-10.312 0-18.75 8.4375-18.75 18.75s8.4375 18.75 18.75 18.75h300c10.312 0 18.75-8.4375 18.75-18.75s-8.4375-18.75-18.75-18.75z"/>
 <path d="m168.75 506.25c10.312 0 18.75-8.4375 18.75-18.75s-8.4375-18.75-18.75-18.75h-93.75c-10.312 0-18.75 8.4375-18.75 18.75s8.4375 18.75 18.75 18.75z"/>
 <path d="m75 243.75h131.25c10.312 0 18.75-8.4375 18.75-18.75s-8.4375-18.75-18.75-18.75h-131.25c-10.312 0-18.75 8.4375-18.75 18.75s8.4375 18.75 18.75 18.75z"/>
 <path d="m75 375h356.25c10.312 0 18.75-8.4375 18.75-18.75s-8.4375-18.75-18.75-18.75h-356.25c-10.312 0-18.75 8.4375-18.75 18.75s8.4375 18.75 18.75 18.75z"/>
 <path d="m281.25 243.75h451.31c51 0 92.438-41.438 92.438-92.438s-41.438-92.25-92.438-92.25h-35.062c-30.188 0-54.938 24.562-54.938 54.75s24.562 54.938 54.938 54.938h33.75c10.312 0 18.75-8.4375 18.75-18.75s-8.4375-18.75-18.75-18.75h-33.75c-9.5625 0-17.438-7.875-17.438-17.438s7.875-17.25 17.438-17.25h35.062c30.188 0 54.938 24.562 54.938 54.75s-24.562 54.938-54.938 54.938h-451.31c-10.312 0-18.75 8.4375-18.75 18.75s8.4375 18.75 18.75 18.75z"/>
 <path d="m960 300h33.75c10.312 0 18.75-8.4375 18.75-18.75s-8.4375-18.75-18.75-18.75h-33.75c-9.5625 0-17.438-7.875-17.438-17.438s7.875-17.25 17.438-17.25h35.062c30.188 0 54.938 24.562 54.938 54.75s-24.562 54.938-54.938 54.938h-488.81c-10.312 0-18.75 8.4375-18.75 18.75s8.4375 18.75 18.75 18.75h488.81c51 0 92.438-41.438 92.438-92.438s-41.438-92.25-92.438-92.25h-35.062c-30.188 0-54.938 24.562-54.938 54.75s24.562 54.938 54.938 54.938z"/>
 <path d="m637.5 468.75c-10.312 0-18.75 8.4375-18.75 18.75s8.4375 18.75 18.75 18.75h413.81c30.188 0 54.938 24.562 54.938 54.938s-24.562 54.75-54.938 54.75h-35.062c-9.5625 0-17.438-7.875-17.438-17.25s7.875-17.438 17.438-17.438h33.75c10.312 0 18.75-8.4375 18.75-18.75s-8.4375-18.75-18.75-18.75h-33.75c-30.188 0-54.938 24.562-54.938 54.938s24.562 54.75 54.938 54.75h35.062c51 0 92.438-41.438 92.438-92.25s-41.438-92.438-92.438-92.438z"/>
</svg>
